<?xml version="1.0" encoding="UTF-8"?>
<svg id="_Шар_1" data-name="Шар 1" xmlns="http://www.w3.org/2000/svg" viewBox="0 0 220.6 167.4">
  <defs>
    <style>
      .cls-1 {
        fill: #c1f33d;
      }

      .cls-2, .cls-3 {
        fill: #020a0a;
      }

      .cls-3 {
        fill-rule: evenodd;
      }
    </style>
  </defs>
  <g>
    <path class="cls-3" d="M97.47,83.7c0,3.88.59,7.63,1.67,11.15,3.53,1.09,7.27,1.67,11.15,1.67s7.63-.59,11.15-1.67c1.09-3.53,1.67-7.27,1.67-11.15s-.59-7.63-1.67-11.15c-3.53-1.09-7.27-1.67-11.15-1.67s-7.63.59-11.15,1.67c-1.09,3.53-1.67,7.27-1.67,11.15"/>
    <circle class="cls-2" cx="110.3" cy="108.67" r="37.79"/>
    <path class="cls-3" d="M69.76,108.67c0-9.42,3.21-18.09,8.6-24.97-5.39-6.88-8.6-15.55-8.6-24.97,0-3.46.43-6.81,1.25-10.02-4.68,1.92-8.89,4.74-12.4,8.26-6.84,6.84-11.07,16.29-11.07,26.72s4.23,19.88,11.07,26.72c3.52,3.52,7.73,6.34,12.4,8.26-.81-3.2-1.25-6.56-1.25-10.02"/>
    <path class="cls-3" d="M72.51,58.73c0,8.57,2.85,16.48,7.66,22.82.48-.53.96-1.04,1.47-1.55,4.28-4.28,9.5-7.6,15.34-9.63,2.03-5.83,5.35-11.06,9.63-15.34.5-.5,1.02-.99,1.55-1.47-6.34-4.81-14.25-7.66-22.82-7.66-3.88,0-7.63.59-11.15,1.67-1.09,3.53-1.67,7.27-1.67,11.15"/>
    <path class="cls-3" d="M85.33,43.17c9.42,0,18.09,3.21,24.97,8.6,6.88-5.39,15.55-8.6,24.97-8.6,3.46,0,6.81.43,10.02,1.25-1.92-4.68-4.74-8.89-8.26-12.4-6.84-6.84-16.29-11.07-26.72-11.07s-19.88,4.23-26.72,11.07c-3.52,3.52-6.34,7.73-8.26,12.4,3.2-.81,6.56-1.25,10.02-1.25"/>
    <path class="cls-3" d="M135.27,45.91c-8.57,0-16.48,2.85-22.82,7.66.53.48,1.04.96,1.55,1.47,4.28,4.28,7.6,9.5,9.63,15.34,5.83,2.03,11.06,5.36,15.34,9.63.5.5.99,1.02,1.47,1.55,4.81-6.34,7.66-14.25,7.66-22.82,0-3.88-.59-7.63-1.67-11.15-3.53-1.09-7.27-1.67-11.15-1.67"/>
    <path class="cls-3" d="M150.83,58.73c0,9.42-3.21,18.09-8.6,24.97,5.39,6.88,8.6,15.55,8.6,24.97,0,3.46-.43,6.81-1.25,10.02,4.68-1.92,8.89-4.74,12.4-8.26,6.84-6.84,11.07-16.29,11.07-26.72s-4.23-19.88-11.07-26.72c-3.52-3.52-7.73-6.34-12.4-8.26.81,3.2,1.25,6.56,1.25,10.02"/>
    <path class="cls-3" d="M148.09,108.67c0-8.57-2.85-16.48-7.66-22.82-.48.53-.96,1.04-1.47,1.55-4.28,4.28-9.5,7.6-15.34,9.63-2.03,5.83-5.35,11.06-9.63,15.34-.5.5-1.02.99-1.55,1.47,6.34,4.81,14.25,7.66,22.82,7.66,3.88,0,7.63-.59,11.15-1.67,1.09-3.53,1.67-7.27,1.67-11.15"/>
    <path class="cls-3" d="M135.27,124.24c-9.42,0-18.09-3.21-24.97-8.6-6.88,5.39-15.55,8.6-24.97,8.6-3.46,0-6.81-.43-10.02-1.25,1.92,4.68,4.74,8.89,8.26,12.4,6.84,6.84,16.29,11.07,26.72,11.07s19.88-4.23,26.72-11.07c3.52-3.52,6.34-7.73,8.26-12.4-3.2.81-6.56,1.25-10.02,1.25"/>
    <path class="cls-3" d="M85.33,121.49c8.57,0,16.48-2.85,22.82-7.66-.53-.48-1.04-.96-1.55-1.47-4.28-4.28-7.6-9.5-9.63-15.34-5.83-2.03-11.06-5.35-15.34-9.63-.5-.5-.99-1.02-1.47-1.55-4.81,6.34-7.66,14.25-7.66,22.82,0,3.88.59,7.63,1.67,11.15,3.53,1.09,7.27,1.67,11.15,1.67"/>
    <path class="cls-3" d="M100.28,98.02c1.92,4.68,4.74,8.89,8.26,12.4.57.57,1.15,1.12,1.76,1.65.6-.53,1.19-1.08,1.76-1.65,3.52-3.52,6.34-7.73,8.26-12.4-3.2.81-6.56,1.25-10.02,1.25s-6.81-.43-10.02-1.25"/>
    <path class="cls-3" d="M95.98,93.72c-.81-3.2-1.25-6.56-1.25-10.02s.43-6.81,1.25-10.02c-4.68,1.92-8.89,4.74-12.4,8.26-.57.57-1.12,1.15-1.65,1.76.53.6,1.08,1.19,1.65,1.76,3.52,3.52,7.73,6.34,12.4,8.26"/>
    <path class="cls-3" d="M125.87,83.7c0,3.46-.43,6.81-1.25,10.02,4.68-1.92,8.89-4.74,12.4-8.26.57-.57,1.12-1.15,1.65-1.76-.53-.6-1.08-1.19-1.65-1.76-3.52-3.52-7.73-6.34-12.4-8.26.81,3.2,1.25,6.56,1.25,10.02"/>
    <path class="cls-3" d="M110.3,68.13c3.46,0,6.81.43,10.02,1.25-1.92-4.68-4.74-8.89-8.26-12.4-.57-.57-1.15-1.12-1.76-1.65-.6.53-1.19,1.08-1.76,1.65-3.52,3.52-6.34,7.73-8.26,12.4,3.2-.81,6.56-1.25,10.02-1.25"/>
  </g>
  <g>
    <polygon class="cls-1" points="75.11 105.11 110.3 125.43 145.49 105.11 110.3 84.8 75.11 105.11"/>
    <polygon class="cls-1" points="146.75 102.93 146.75 62.29 111.56 41.98 111.56 82.61 146.75 102.93"/>
    <polygon class="cls-1" points="73.85 102.92 73.85 62.29 109.03 41.97 109.03 82.61 73.85 102.92"/>
  </g>
</svg>