<?xml version="1.0" encoding="UTF-8"?>
<svg id="_Шар_1" data-name="Шар 1" xmlns="http://www.w3.org/2000/svg" viewBox="0 0 930.91 400.34">
  <defs>
    <style>
      .cls-1 {
        fill: #c1f33d;
      }

      .cls-2, .cls-3 {
        fill: #020a0a;
      }

      .cls-3 {
        fill-rule: evenodd;
      }

      .cls-4 {
        fill: #3d3b43;
      }
    </style>
  </defs>
  <g>
    <path class="cls-3" d="M163.99,200.17c0,7.19,1.08,14.13,3.1,20.66,6.53,2.01,13.47,3.1,20.66,3.1s14.13-1.08,20.66-3.1c2.01-6.53,3.1-13.47,3.1-20.66s-1.08-14.13-3.1-20.66c-6.53-2.01-13.47-3.1-20.66-3.1s-14.13,1.08-20.66,3.1c-2.01,6.53-3.1,13.47-3.1,20.66"/>
    <circle class="cls-2" cx="187.74" cy="246.41" r="69.99"/>
    <path class="cls-3" d="M112.67,246.41c0-17.44,5.95-33.49,15.93-46.24-9.98-12.75-15.93-28.8-15.93-46.24,0-6.4.8-12.62,2.31-18.55-8.66,3.55-16.46,8.79-22.97,15.3-12.67,12.67-20.5,30.16-20.5,49.49s7.83,36.83,20.5,49.49c6.51,6.51,14.31,11.75,22.97,15.3-1.51-5.93-2.31-12.15-2.31-18.55"/>
    <path class="cls-3" d="M117.75,153.93c0,15.88,5.29,30.52,14.19,42.26.88-.98,1.79-1.93,2.72-2.86,7.92-7.92,17.6-14.08,28.4-17.84,3.76-10.8,9.92-20.48,17.84-28.4.93-.93,1.89-1.84,2.86-2.72-11.74-8.91-26.38-14.19-42.26-14.19-7.19,0-14.13,1.08-20.66,3.1-2.01,6.53-3.1,13.47-3.1,20.66"/>
    <path class="cls-3" d="M141.5,125.1c17.44,0,33.49,5.95,46.24,15.93,12.75-9.98,28.8-15.93,46.24-15.93,6.4,0,12.62.8,18.55,2.31-3.55-8.66-8.79-16.46-15.3-22.97-12.67-12.67-30.16-20.5-49.49-20.5s-36.83,7.83-49.49,20.5c-6.51,6.51-11.75,14.31-15.3,22.97,5.93-1.51,12.15-2.31,18.55-2.31"/>
    <path class="cls-3" d="M233.98,130.18c-15.88,0-30.52,5.29-42.26,14.19.98.88,1.93,1.79,2.86,2.72,7.92,7.92,14.08,17.6,17.84,28.4,10.8,3.76,20.48,9.92,28.4,17.84.93.93,1.84,1.89,2.72,2.86,8.91-11.74,14.19-26.38,14.19-42.26,0-7.19-1.08-14.13-3.1-20.66-6.53-2.01-13.47-3.1-20.66-3.1"/>
    <path class="cls-3" d="M262.81,153.93c0,17.44-5.95,33.49-15.93,46.24,9.98,12.75,15.93,28.8,15.93,46.24,0,6.4-.8,12.62-2.31,18.55,8.66-3.55,16.46-8.79,22.97-15.3,12.67-12.67,20.5-30.16,20.5-49.49s-7.83-36.83-20.5-49.49c-6.51-6.51-14.31-11.75-22.97-15.3,1.51,5.93,2.31,12.15,2.31,18.55"/>
    <path class="cls-3" d="M257.73,246.41c0-15.88-5.29-30.52-14.19-42.26-.88.98-1.79,1.93-2.72,2.86-7.92,7.92-17.6,14.08-28.4,17.84-3.76,10.8-9.92,20.48-17.84,28.4-.93.93-1.89,1.84-2.86,2.72,11.74,8.91,26.38,14.19,42.26,14.19,7.19,0,14.13-1.08,20.66-3.1,2.01-6.53,3.1-13.47,3.1-20.66"/>
    <path class="cls-3" d="M233.98,275.24c-17.44,0-33.49-5.95-46.24-15.93-12.75,9.98-28.8,15.93-46.24,15.93-6.4,0-12.62-.8-18.55-2.31,3.55,8.66,8.79,16.46,15.3,22.97,12.67,12.67,30.16,20.5,49.49,20.5s36.83-7.83,49.49-20.5c6.51-6.51,11.75-14.31,15.3-22.97-5.93,1.51-12.15,2.31-18.55,2.31"/>
    <path class="cls-3" d="M141.5,270.16c15.88,0,30.52-5.29,42.26-14.19-.98-.88-1.93-1.79-2.86-2.72-7.92-7.92-14.08-17.6-17.84-28.4-10.8-3.76-20.48-9.92-28.4-17.84-.93-.93-1.84-1.89-2.72-2.86-8.91,11.74-14.19,26.38-14.19,42.26,0,7.19,1.08,14.13,3.1,20.66,6.53,2.01,13.47,3.1,20.66,3.1"/>
    <path class="cls-3" d="M169.19,226.69c3.55,8.66,8.79,16.46,15.3,22.97,1.05,1.05,2.14,2.07,3.25,3.05,1.12-.98,2.2-2,3.25-3.05,6.51-6.51,11.75-14.31,15.3-22.97-5.93,1.51-12.15,2.31-18.55,2.31s-12.62-.8-18.55-2.31"/>
    <path class="cls-3" d="M161.22,218.72c-1.51-5.93-2.31-12.15-2.31-18.55s.8-12.62,2.31-18.55c-8.66,3.55-16.46,8.79-22.97,15.3-1.05,1.05-2.07,2.14-3.05,3.25.98,1.12,2,2.2,3.05,3.25,6.51,6.51,14.31,11.75,22.97,15.3"/>
    <path class="cls-3" d="M216.57,200.17c0,6.4-.8,12.62-2.31,18.55,8.66-3.55,16.46-8.79,22.97-15.3,1.05-1.05,2.07-2.14,3.05-3.25-.98-1.12-2-2.2-3.05-3.25-6.51-6.51-14.31-11.75-22.97-15.3,1.51,5.93,2.31,12.15,2.31,18.55"/>
    <path class="cls-3" d="M187.74,171.34c6.4,0,12.62.8,18.55,2.31-3.55-8.66-8.79-16.46-15.3-22.97-1.05-1.05-2.14-2.07-3.25-3.05-1.12.98-2.2,2-3.25,3.05-6.51,6.51-11.75,14.31-15.3,22.97,5.93-1.51,12.15-2.31,18.55-2.31"/>
  </g>
  <g>
    <polygon class="cls-1" points="122.58 239.82 187.75 277.45 252.91 239.82 187.75 202.2 122.58 239.82"/>
    <polygon class="cls-1" points="255.25 235.77 255.25 160.52 190.09 122.9 190.09 198.15 255.25 235.77"/>
    <polygon class="cls-1" points="120.23 235.77 120.23 160.52 185.4 122.89 185.4 198.14 120.23 235.77"/>
  </g>
  <g>
    <path class="cls-2" d="M401.67,188.07c0,14.75-11.41,22.82-30.33,22.82h-41.18v-83.47h38.12c19.48,0,31.16,6.96,31.16,21.98,0,9.18-4.73,15.58-11.96,18.64,9.18,3.06,14.19,10.02,14.19,20.03ZM349.08,161.08h19.2c8.07,0,11.69-2.78,11.69-9.46,0-5.84-3.9-9.18-11.13-9.18h-19.76v18.64ZM381.63,185.56c0-6.4-4.73-10.3-12.8-10.3h-19.76v20.31h20.31c7.79,0,12.24-3.89,12.24-10.02Z"/>
    <path class="cls-2" d="M495.75,127.41v83.47h-19.48v-55.09l-37.01,55.09h-20.03v-83.47h19.76v55.09l36.73-55.09h20.03Z"/>
    <path class="cls-2" d="M581.47,146.05h-42.29v64.83h-20.03v-83.47h62.33v18.64Z"/>
    <path class="cls-2" d="M585.53,169.14c0-25.04,16.96-41.74,41.74-41.74s41.74,16.43,41.74,41.74-16.96,41.74-41.74,41.74-41.74-16.43-41.74-41.74ZM649.08,169.14c0-15.89-8.35-25.58-21.81-25.58s-21.81,9.7-21.81,25.58,8.35,25.58,21.81,25.58,21.81-9.69,21.81-25.58Z"/>
    <path class="cls-2" d="M772.14,192.83v37.58h-19.21v-19.49h-55.95v19.49h-19.21v-37.58h10.02c1.39-6.4,1.95-16.42,1.95-30.62v-34.8h71.27v65.42h11.14ZM741.24,193.39v-48.44h-32.01v18.09c0,11.97-.56,22.27-1.95,30.34h33.96Z"/>
    <path class="cls-2" d="M859.4,192.84v16.7c-1.35.27-3.5.54-7,.54-9.96,0-15.08-3.77-16.43-12.39-5.92,8.08-16.43,13.19-28.27,13.19-15.62,0-26.39-9.42-26.39-23.7,0-20.46,19.39-24.5,34.74-26.39,10.5-1.35,17.23-2.69,17.23-8.08,0-5.65-5.92-9.42-15.62-9.42-8.62,0-16.69,3.5-22.89,9.96l-11.58-12.12c9.43-8.89,21.27-13.73,35.54-13.73,20.46,0,32.58,10.23,32.58,26.93v33.66c0,3.23,1.62,4.85,4.85,4.85h3.23ZM832.74,178.3v-8.35c-3.23,1.89-7.81,2.69-14.54,3.77-9.16,1.62-18.04,2.96-18.04,11.85,0,6.19,4.31,9.96,11.58,9.96,11.58,0,21-7.81,21-17.23Z"/>
  </g>
  <g>
    <path class="cls-4" d="M335.67,263.58c-1.67-.92-2.97-2.21-3.92-3.88-.95-1.67-1.42-3.54-1.42-5.63s.47-3.95,1.42-5.61c.95-1.65,2.26-2.94,3.92-3.86,1.67-.92,3.56-1.38,5.67-1.38,1.84,0,3.49.36,4.94,1.08,1.45.72,2.59,1.77,3.43,3.15l-2.15,1.46c-.7-1.06-1.6-1.85-2.68-2.38-1.08-.53-2.26-.79-3.54-.79-1.54,0-2.93.35-4.16,1.04-1.23.69-2.19,1.67-2.88,2.95-.69,1.27-1.04,2.72-1.04,4.35s.35,3.11,1.04,4.37c.69,1.26,1.65,2.23,2.88,2.93,1.23.69,2.62,1.04,4.16,1.04,1.27,0,2.45-.26,3.54-.77,1.08-.51,1.98-1.3,2.68-2.36l2.15,1.46c-.84,1.38-1.99,2.43-3.45,3.15-1.46.72-3.1,1.08-4.92,1.08-2.11,0-4-.46-5.67-1.38Z"/>
    <path class="cls-4" d="M355.55,243.23h2.93v17.27l14.51-17.27h2.6v21.74h-2.93v-17.27l-14.46,17.27h-2.64v-21.74Z"/>
    <path class="cls-4" d="M387.39,263.58c-1.67-.92-2.97-2.21-3.92-3.88-.95-1.67-1.42-3.54-1.42-5.63s.47-3.95,1.42-5.61c.95-1.65,2.26-2.94,3.92-3.86,1.67-.92,3.56-1.38,5.67-1.38,1.84,0,3.49.36,4.94,1.08,1.45.72,2.59,1.77,3.43,3.15l-2.15,1.46c-.7-1.06-1.6-1.85-2.68-2.38-1.08-.53-2.26-.79-3.54-.79-1.54,0-2.93.35-4.16,1.04-1.23.69-2.19,1.67-2.88,2.95-.69,1.27-1.04,2.72-1.04,4.35s.35,3.11,1.04,4.37c.69,1.26,1.65,2.23,2.88,2.93,1.23.69,2.62,1.04,4.16,1.04,1.27,0,2.45-.26,3.54-.77,1.08-.51,1.98-1.3,2.68-2.36l2.15,1.46c-.84,1.38-1.99,2.43-3.45,3.15-1.46.72-3.1,1.08-4.92,1.08-2.11,0-4-.46-5.67-1.38Z"/>
    <path class="cls-4" d="M422.14,245.83h-8.22v19.13h-2.93v-19.13h-8.22v-2.6h19.38v2.6Z"/>
    <path class="cls-4" d="M444.24,254.97h-17.87c.16,2.22,1.02,4.02,2.56,5.38,1.54,1.37,3.49,2.05,5.85,2.05,1.33,0,2.55-.24,3.66-.71,1.11-.47,2.07-1.17,2.88-2.09l1.63,1.87c-.95,1.14-2.13,2-3.55,2.6-1.42.6-2.99.89-4.69.89-2.19,0-4.14-.47-5.83-1.4-1.69-.93-3.01-2.23-3.96-3.88-.95-1.65-1.42-3.52-1.42-5.61s.45-3.95,1.36-5.61c.91-1.65,2.15-2.94,3.74-3.86,1.58-.92,3.36-1.38,5.34-1.38s3.75.46,5.32,1.38c1.57.92,2.8,2.2,3.7,3.84.89,1.64,1.34,3.51,1.34,5.63l-.04.89ZM428.74,247.67c-1.39,1.31-2.19,3.03-2.38,5.14h15.15c-.19-2.11-.98-3.83-2.38-5.14-1.39-1.31-3.13-1.97-5.22-1.97s-3.79.66-5.18,1.97Z"/>
    <path class="cls-4" d="M475.26,243.23v21.73h-2.69v-17.19l-8.8,14.54h-1.32l-8.8-14.59v17.23h-2.69v-21.73h2.97l9.21,15.66,9.38-15.66h2.73Z"/>
    <path class="cls-4" d="M483.63,243.23h2.93v9.63h13.68v-9.63h2.93v21.73h-2.93v-9.59h-13.68v9.59h-2.93v-21.73Z"/>
    <path class="cls-4" d="M511.53,243.23h2.93v17.27l14.5-17.27h2.6v21.73h-2.93v-17.27l-14.46,17.27h-2.64v-21.73Z"/>
    <path class="cls-4" d="M539.97,243.22h2.93v17.27l14.51-17.27h2.6v21.74h-2.93v-17.27l-14.46,17.27h-2.64v-21.74ZM545.38,238.68c-1.1-.94-1.67-2.26-1.69-3.97h2.11c.03,1.07.41,1.94,1.16,2.58.74.65,1.71.97,2.89.97s2.16-.32,2.91-.97c.76-.65,1.15-1.51,1.18-2.58h2.11c-.03,1.71-.6,3.03-1.71,3.97-1.12.94-2.61,1.4-4.48,1.4s-3.36-.47-4.46-1.4Z"/>
    <path class="cls-4" d="M600.44,262.41v7.81h-2.77v-5.25h-19.47v5.25h-2.77v-7.81h1.24c1.46-.08,2.45-1.16,2.98-3.22.52-2.07.88-4.96,1.07-8.68l.29-7.28h16.04v19.18h3.39ZM582.62,258.29c-.39,2-1.07,3.37-2.07,4.11h13.56v-16.58h-10.46l-.25,4.84c-.14,3.09-.4,5.63-.79,7.63Z"/>
    <path class="cls-4" d="M624.98,254.97h-17.88c.16,2.22,1.02,4.02,2.56,5.38,1.54,1.37,3.49,2.05,5.85,2.05,1.33,0,2.55-.24,3.66-.71,1.11-.47,2.07-1.17,2.88-2.09l1.63,1.87c-.95,1.14-2.13,2.01-3.55,2.6-1.42.6-2.99.89-4.69.89-2.19,0-4.14-.47-5.83-1.4-1.69-.93-3.01-2.23-3.96-3.88-.95-1.65-1.42-3.52-1.42-5.61s.45-3.95,1.36-5.61c.91-1.65,2.15-2.94,3.74-3.86,1.58-.92,3.37-1.38,5.34-1.38s3.75.46,5.32,1.38c1.57.92,2.8,2.2,3.7,3.84.89,1.64,1.34,3.51,1.34,5.63l-.04.89ZM609.48,247.67c-1.4,1.31-2.19,3.03-2.38,5.14h15.16c-.19-2.11-.98-3.83-2.38-5.14-1.4-1.31-3.13-1.97-5.22-1.97s-3.79.66-5.18,1.97Z"/>
    <path class="cls-4" d="M649.97,259.05c0,1.9-.7,3.36-2.11,4.38-1.4,1.02-3.5,1.53-6.28,1.53h-9.88v-21.74h9.59c2.48,0,4.42.48,5.83,1.45,1.41.96,2.11,2.34,2.11,4.13,0,1.18-.32,2.2-.97,3.04-.65.84-1.55,1.47-2.71,1.88,2.95.69,4.42,2.47,4.42,5.33ZM634.55,252.9h6.53c1.68,0,2.97-.32,3.86-.95.9-.63,1.34-1.56,1.34-2.77s-.45-2.12-1.34-2.73c-.9-.61-2.18-.91-3.86-.91h-6.53v7.36ZM645.67,261.74c.94-.61,1.41-1.56,1.41-2.85s-.43-2.25-1.28-2.87c-.86-.62-2.21-.93-4.05-.93h-7.19v7.56h6.9c1.87,0,3.28-.3,4.22-.91Z"/>
    <path class="cls-4" d="M675.67,254.97h-17.88c.16,2.22,1.02,4.02,2.56,5.39,1.54,1.37,3.5,2.05,5.85,2.05,1.33,0,2.55-.24,3.66-.71,1.11-.47,2.07-1.17,2.89-2.09l1.63,1.87c-.95,1.14-2.13,2.01-3.56,2.6-1.42.6-2.99.89-4.7.89-2.19,0-4.14-.47-5.83-1.4-1.69-.93-3.01-2.23-3.96-3.88-.95-1.65-1.42-3.52-1.42-5.61s.45-3.96,1.36-5.61c.91-1.65,2.15-2.94,3.74-3.86,1.59-.92,3.37-1.38,5.34-1.38s3.75.46,5.32,1.38c1.57.92,2.81,2.2,3.7,3.84.89,1.64,1.34,3.52,1.34,5.63l-.04.89ZM660.16,247.68c-1.4,1.31-2.19,3.03-2.38,5.14h15.16c-.19-2.11-.98-3.83-2.38-5.14-1.4-1.31-3.14-1.97-5.22-1.97s-3.79.66-5.18,1.97Z"/>
    <path class="cls-4" d="M699.7,243.23v21.75h-2.94v-19.14h-10.42l-.29,5.37c-.22,4.52-.74,7.99-1.57,10.42-.83,2.43-2.3,3.64-4.42,3.64-.58,0-1.28-.11-2.11-.33l.21-2.52c.5.11.84.17,1.03.17,1.13,0,1.98-.52,2.56-1.57.58-1.05.96-2.34,1.16-3.89.19-1.54.36-3.58.5-6.12l.37-7.77h15.92Z"/>
    <path class="cls-4" d="M711.46,263.56c-1.65-.93-2.95-2.23-3.9-3.88-.95-1.65-1.42-3.52-1.42-5.61s.47-3.95,1.42-5.61c.95-1.65,2.25-2.94,3.9-3.86,1.65-.92,3.51-1.38,5.57-1.38s3.91.46,5.57,1.38c1.65.92,2.94,2.21,3.88,3.86.93,1.65,1.4,3.52,1.4,5.61s-.47,3.95-1.4,5.61c-.93,1.65-2.23,2.95-3.88,3.88-1.65.93-3.51,1.4-5.57,1.4s-3.92-.47-5.57-1.4ZM721.11,261.37c1.2-.69,2.15-1.67,2.82-2.95.68-1.27,1.02-2.72,1.02-4.35s-.34-3.07-1.02-4.35c-.68-1.27-1.62-2.26-2.82-2.95-1.21-.69-2.57-1.04-4.08-1.04s-2.88.35-4.08,1.04c-1.21.69-2.15,1.67-2.84,2.95-.69,1.27-1.04,2.72-1.04,4.35s.34,3.07,1.04,4.35c.69,1.27,1.64,2.25,2.84,2.95,1.2.69,2.57,1.04,4.08,1.04s2.88-.35,4.08-1.04Z"/>
    <path class="cls-4" d="M753.86,243.23v21.75h-2.94v-19.14h-13.64v19.14h-2.93v-21.75h19.51Z"/>
    <path class="cls-4" d="M809.49,254.97h-17.88c.16,2.22,1.02,4.02,2.56,5.39,1.54,1.37,3.5,2.05,5.85,2.05,1.33,0,2.55-.24,3.66-.71,1.11-.47,2.07-1.17,2.89-2.09l1.63,1.87c-.95,1.14-2.13,2.01-3.56,2.6-1.42.6-2.99.89-4.7.89-2.19,0-4.14-.47-5.83-1.4-1.69-.93-3.01-2.23-3.96-3.88-.95-1.65-1.42-3.52-1.42-5.61s.45-3.96,1.36-5.61c.91-1.65,2.15-2.94,3.74-3.86,1.59-.92,3.37-1.38,5.34-1.38s3.75.46,5.32,1.38c1.57.92,2.81,2.2,3.7,3.84.89,1.64,1.34,3.52,1.34,5.63l-.04.89ZM793.98,247.68c-1.4,1.31-2.19,3.03-2.38,5.14h15.16c-.19-2.11-.98-3.83-2.38-5.14-1.4-1.31-3.14-1.97-5.22-1.97s-3.79.66-5.18,1.97Z"/>
    <path class="cls-4" d="M816.2,243.23h2.93v9.63h13.68v-9.63h2.93v21.74h-2.93v-9.59h-13.68v9.59h-2.93v-21.74Z"/>
    <path class="cls-4" d="M859.4,245.83h-8.22v19.13h-2.93v-19.13h-8.22v-2.6h19.38v2.6Z"/>
    <path class="cls-4" d="M784.29,243.24v21.73h-2.69v-17.19l-8.8,14.54h-1.32l-8.8-14.59v17.23h-2.69v-21.73h2.97l9.21,15.66,9.38-15.66h2.73Z"/>
  </g>
</svg>