<?xml version="1.0" encoding="UTF-8"?>
<svg xmlns="http://www.w3.org/2000/svg" viewBox="0 0 220.6 167.4">
  <defs>
    <style>
      .cls-1, .cls-2 {
        fill: #c1f33d;
      }

      .cls-2 {
        mix-blend-mode: overlay;
      }

      .cls-3 {
        opacity: .4;
      }

      .cls-4 {
        isolation: isolate;
      }
    </style>
  </defs>
  <g class="cls-4">
    <g id="_Шар_1" data-name="Шар 1">
      <g class="cls-3">
        <polygon class="cls-1" points="81.18 39.08 81.19 39.08 81.19 39.01 81.21 39 61.94 27.88 42.65 39.01 42.65 39.08 61.91 50.2 81.18 39.08"/>
        <path class="cls-2" d="M61.91,50.68l-19.67-11.36v-.47l.2-.19,19.49-11.25,20.09,11.6-.43.25v.44s-.38-.16-.38-.16l-19.3,11.14ZM43.4,39.05l18.51,10.68,18.53-10.7-18.51-10.68-18.53,10.7Z"/>
        <path class="cls-2" d="M100.45,50.68l-19.63-11.33v-.09s-.41-.23-.41-.23l.59-.36,19.47-11.24,20.09,11.6-.43.24v.46l-.39-.17-19.29,11.14ZM81.94,39.05l18.51,10.68,18.53-10.7-18.51-10.68-18.53,10.7Z"/>
        <polygon class="cls-1" points="81.19 39.08 81.22 39.1 81.22 39.01 81.21 39 81.19 39.01 81.19 39.08"/>
        <polygon class="cls-2" points="81.63 39.82 80.78 39.32 80.78 38.85 80.98 38.66 81.19 38.54 81.61 38.77 81.63 39.11 81.63 39.82"/>
        <path class="cls-2" d="M138.99,50.68l-19.63-11.33v-.09l-.4-.24.59-.36,19.47-11.24,20.09,11.6-.44.25v.47s-.39-.18-.39-.18l-19.29,11.14ZM120.48,39.05l18.51,10.68,18.53-10.7-18.51-10.68-18.53,10.7Z"/>
        <polygon class="cls-1" points="119.73 39.08 119.76 39.11 119.76 39.01 119.74 39 119.73 39.01 119.73 39.08"/>
        <polygon class="cls-2" points="120.17 39.82 119.32 39.32 119.32 38.84 119.53 38.66 119.73 38.54 120.15 38.77 120.17 39.11 120.17 39.82"/>
        <polygon class="cls-1" points="158.3 39.1 177.53 50.2 196.8 39.08 196.81 39.08 196.81 39.01 196.82 39 177.55 27.88 158.28 39 158.3 39.01 158.3 39.1"/>
        <path class="cls-2" d="M177.53,50.68l-19.63-11.34v-.09s-.4-.24-.4-.24l.59-.36,19.48-11.24,20.09,11.6-.43.25v.44l-.38-.16-19.3,11.14ZM159.02,39.05l18.51,10.68,18.53-10.7-18.51-10.68-18.53,10.7Z"/>
        <polygon class="cls-1" points="158.26 39.08 158.3 39.1 158.3 39.01 158.28 39 158.26 39.01 158.26 39.08"/>
        <polygon class="cls-2" points="158.71 39.82 157.86 39.32 157.86 38.84 158.06 38.66 158.27 38.54 158.69 38.77 158.71 39.1 158.71 39.82"/>
        <polygon class="cls-1" points="61.89 72.4 42.65 61.29 42.65 39.08 42.64 39.08 23.35 50.21 23.35 72.49 42.64 83.62 61.91 72.5 61.89 72.49 61.89 72.4"/>
        <path class="cls-2" d="M42.64,84.1l-19.7-11.37v-22.74s19.69-11.37,19.69-11.37l.42.22v.25s0,21.97,0,21.97l19.25,11.11v.09s.41.24.41.24l-.6.36-19.47,11.24ZM23.76,72.25l18.88,10.9,18.53-10.7-18.93-10.93v-21.74l-18.48,10.67v21.8Z"/>
        <polygon class="cls-1" points="61.89 72.4 61.89 50.21 61.91 50.2 42.65 39.08 42.65 61.29 61.89 72.4"/>
        <path class="cls-2" d="M62.3,73.1l-20.06-11.58v-23.15s20.49,11.83,20.49,11.83l-.43.25v22.65ZM43.06,61.05l18.43,10.64v-21.26l-18.43-10.64v21.26Z"/>
        <path class="cls-2" d="M81.18,84.09l-20.09-11.6.43-.25v-.46s.39.18.39.18l19.29-11.14,19.63,11.34v.09l.41.24-.6.36-19.47,11.24ZM62.67,72.47l18.51,10.69,18.53-10.7-18.51-10.69-18.53,10.7Z"/>
        <path class="cls-2" d="M61.94,72.89l-.42-.23v-22.21s-.41-.24-.41-.24l.6-.36,19.46-11.24.42.22v.25s0,21.97,0,21.97l.41.23-.59.36-19.47,11.24ZM62.34,50.43v21.29l18.44-10.65v-21.29s-18.44,10.65-18.44,10.65Z"/>
        <polygon class="cls-1" points="100.45 50.2 81.22 39.1 81.22 61.29 81.2 61.3 100.43 72.4 100.43 50.22 100.45 50.2"/>
        <path class="cls-2" d="M100.84,73.1l-20.45-11.81.43-.25v-22.65s20.45,11.81,20.45,11.81l-.43.25v22.65ZM81.63,61.07l18.39,10.62v-21.26s-18.39-10.62-18.39-10.62v21.26Z"/>
        <polygon class="cls-1" points="81.22 39.1 81.19 39.08 81.19 61.29 81.2 61.3 81.22 61.29 81.22 39.1"/>
        <polygon class="cls-2" points="81.22 61.76 80.78 61.52 80.78 38.37 81.6 38.85 81.63 39.11 81.63 61.52 81.22 61.76"/>
        <polygon class="cls-1" points="61.93 72.42 61.89 72.4 61.89 72.49 61.91 72.5 61.93 72.49 61.93 72.42"/>
        <polygon class="cls-2" points="61.93 72.96 61.48 72.72 61.48 71.69 62.3 72.16 62.34 72.65 62.13 72.84 61.93 72.96"/>
        <polygon class="cls-1" points="61.91 50.2 61.89 50.21 61.89 72.4 61.93 72.42 61.93 50.22 61.91 50.2"/>
        <polygon class="cls-2" points="62.34 73.12 61.48 72.63 61.48 49.98 61.89 49.74 62.32 49.97 62.34 50.22 62.34 73.12"/>
        <path class="cls-2" d="M119.72,84.1l-20.08-11.59.42-.25v-.43s.38.15.38.15l19.31-11.15,19.63,11.34v.09l.41.24-.59.36-19.47,11.24ZM101.21,72.47l18.51,10.68,18.53-10.7-18.51-10.69-18.53,10.7Z"/>
        <path class="cls-2" d="M100.49,72.89l-.43-.22v-22.22s-.4-.24-.4-.24l.59-.36,19.47-11.24.41.23v.24s0,21.96,0,21.96l.42.23-.6.37-19.46,11.24ZM100.88,50.43v21.29s18.44-10.65,18.44-10.65v-21.29s-18.44,10.65-18.44,10.65Z"/>
        <path class="cls-2" d="M139.38,73.1l-20.44-11.8.42-.25v-22.65s20.45,11.81,20.45,11.81l-.43.25v22.65ZM120.17,61.07l18.39,10.62v-21.26l-18.39-10.62v21.26Z"/>
        <polygon class="cls-1" points="119.76 39.11 119.73 39.08 119.73 61.29 119.74 61.3 119.76 61.29 119.76 39.11"/>
        <polygon class="cls-2" points="119.77 61.76 119.32 61.52 119.32 38.37 120.13 38.85 120.17 39.11 120.17 61.52 119.77 61.76"/>
        <polygon class="cls-1" points="100.47 72.42 100.43 72.4 100.43 72.49 100.45 72.5 100.47 72.49 100.47 72.42"/>
        <polygon class="cls-2" points="100.47 72.96 100.02 72.72 100.02 71.69 100.84 72.16 100.88 72.65 100.67 72.84 100.47 72.96"/>
        <polygon class="cls-1" points="100.45 50.2 100.43 50.22 100.43 72.4 100.47 72.42 100.47 50.21 100.45 50.2"/>
        <polygon class="cls-2" points="100.88 73.13 100.02 72.63 100.02 49.98 100.43 49.74 100.86 49.97 100.88 50.21 100.88 73.13"/>
        <path class="cls-2" d="M158.26,84.1l-20.08-11.59.42-.25v-.43l.38.15,19.31-11.15,19.64,11.34v.09s.41.24.41.24l-.6.36-19.47,11.24ZM139.75,72.47l18.51,10.69,18.53-10.7-18.51-10.69-18.53,10.7Z"/>
        <path class="cls-2" d="M139.03,72.89l-.43-.21v-22.22s-.4-.24-.4-.24l.59-.36,19.48-11.24.41.24v.24s0,21.96,0,21.96l.42.23-.6.37-19.46,11.24ZM139.42,50.43v21.29l18.44-10.65v-21.29s-18.44,10.64-18.44,10.64Z"/>
        <polygon class="cls-1" points="177.53 50.2 158.3 39.1 158.3 61.29 158.28 61.3 177.51 72.4 177.51 50.21 177.53 50.2"/>
        <path class="cls-2" d="M177.92,73.1l-20.45-11.8.42-.25v-22.66l20.45,11.81-.43.25v22.65ZM158.71,61.07l18.39,10.62v-21.26l-18.39-10.62v21.26Z"/>
        <polygon class="cls-1" points="158.3 39.1 158.26 39.08 158.26 61.29 158.28 61.3 158.3 61.29 158.3 39.1"/>
        <polygon class="cls-2" points="158.31 61.76 157.86 61.52 157.86 38.37 158.67 38.85 158.71 39.1 158.71 61.52 158.31 61.76"/>
        <polygon class="cls-1" points="139.01 72.42 138.97 72.4 138.97 72.49 138.99 72.5 139.01 72.49 139.01 72.42"/>
        <polygon class="cls-2" points="139.01 72.96 138.56 72.72 138.56 71.69 139.38 72.16 139.42 72.65 139.21 72.84 139.01 72.96"/>
        <polygon class="cls-1" points="138.99 50.2 138.97 50.22 138.97 72.4 139.01 72.42 139.01 50.21 138.99 50.2"/>
        <polygon class="cls-2" points="139.41 73.13 138.56 72.63 138.56 49.98 138.97 49.74 139.4 49.97 139.42 50.21 139.41 73.13"/>
        <polygon class="cls-1" points="81.18 83.74 81.19 83.74 81.19 83.67 81.2 83.66 61.94 72.54 42.65 83.67 42.65 83.74 61.91 94.86 81.18 83.74"/>
        <path class="cls-2" d="M61.91,95.34l-19.67-11.36v-.47s.2-.19.2-.19l19.49-11.25,20.09,11.6-.43.25v.48s-.4-.19-.4-.19l-19.29,11.13ZM43.4,83.71l18.51,10.69,18.53-10.7-18.51-10.68-18.53,10.7Z"/>
        <polygon class="cls-1" points="81.22 83.76 100.45 94.86 119.72 83.74 119.73 83.74 119.73 83.67 119.74 83.66 100.48 72.54 81.2 83.66 81.22 83.67 81.22 83.76"/>
        <path class="cls-2" d="M100.45,95.34l-19.63-11.33v-.09s-.41-.24-.41-.24l.59-.36,19.47-11.24,20.09,11.6-.44.24v.5s-.4-.21-.4-.21l-19.28,11.13ZM81.94,83.71l18.51,10.68,18.53-10.7-18.51-10.68-18.53,10.7Z"/>
        <polygon class="cls-1" points="81.19 83.74 81.22 83.76 81.22 83.67 81.2 83.66 81.19 83.67 81.19 83.74"/>
        <polygon class="cls-2" points="81.63 84.47 80.78 83.98 80.78 83.51 80.98 83.32 81.19 83.2 81.61 83.43 81.63 83.76 81.63 84.47"/>
        <polygon class="cls-1" points="119.76 83.77 138.99 94.86 158.26 83.74 158.26 83.74 158.26 83.67 158.28 83.66 139.01 72.54 119.74 83.66 119.76 83.67 119.76 83.77"/>
        <path class="cls-2" d="M138.99,95.34l-19.63-11.33v-.09l-.4-.23.59-.36,19.47-11.24,20.09,11.6-.44.25v.52s-.41-.23-.41-.23l-19.28,11.13ZM120.48,83.71l18.51,10.68,18.53-10.7-18.51-10.69-18.53,10.7Z"/>
        <polygon class="cls-1" points="119.73 83.74 119.76 83.77 119.76 83.67 119.74 83.66 119.73 83.67 119.73 83.74"/>
        <polygon class="cls-2" points="120.17 84.47 119.32 83.98 119.32 83.5 119.52 83.32 119.73 83.2 120.15 83.43 120.17 83.76 120.17 84.47"/>
        <path class="cls-2" d="M177.53,95.34l-19.64-11.33v-.09l-.4-.24.59-.36,19.47-11.24,20.09,11.6-.43.25v.48s-.4-.19-.4-.19l-19.29,11.14ZM159.02,83.71l18.51,10.69,18.53-10.7-18.51-10.68-18.53,10.7Z"/>
        <polygon class="cls-1" points="158.26 83.74 158.3 83.76 158.3 83.67 158.28 83.66 158.26 83.67 158.26 83.74"/>
        <polygon class="cls-2" points="158.71 84.47 157.86 83.98 157.86 83.5 158.06 83.32 158.27 83.2 158.69 83.43 158.71 83.76 158.71 84.47"/>
        <polygon class="cls-1" points="61.89 117.06 42.65 105.95 42.65 83.74 42.64 83.74 23.35 94.87 23.35 117.15 42.64 128.28 61.91 117.16 61.89 117.15 61.89 117.06"/>
        <path class="cls-2" d="M42.64,128.75l-19.7-11.37v-22.74l19.7-11.37.4.25v.23s0,21.97,0,21.97l19.25,11.11v.09l.42.23-.61.37-19.47,11.24ZM23.76,116.91l18.88,10.9,18.53-10.7-18.94-10.93v-21.74s-18.48,10.67-18.48,10.67v21.8Z"/>
        <path class="cls-2" d="M62.3,117.76l-20.06-11.58v-23.15s20.51,11.84,20.51,11.84l-.45.24v22.64ZM43.06,105.71l18.43,10.64v-21.26s-18.43-10.64-18.43-10.64v21.26Z"/>
        <polygon class="cls-1" points="100.43 117.06 81.2 105.96 61.94 117.08 61.93 117.08 61.93 117.15 61.91 117.16 81.18 128.28 100.45 117.16 100.43 117.15 100.43 117.06"/>
        <path class="cls-2" d="M81.18,128.75l-20.1-11.6.44-.24v-.46s.39.18.39.18l19.29-11.14,19.63,11.34v.09l.42.23-.61.37-19.47,11.24ZM62.68,117.13l18.51,10.68,18.53-10.7-18.51-10.68-18.53,10.7Z"/>
        <polygon class="cls-1" points="81.19 83.74 81.18 83.74 61.91 94.86 61.93 94.87 61.93 117.08 61.94 117.08 81.2 105.96 81.19 105.95 81.19 83.74"/>
        <path class="cls-2" d="M61.94,117.55l-.42-.24v-22.2s-.43-.23-.43-.23l.62-.38,19.48-11.24.41.24v.24s0,21.97,0,21.97l.41.24-.6.36-19.47,11.24ZM62.34,95.09v21.29l18.44-10.65v-21.29s-18.44,10.65-18.44,10.65Z"/>
        <path class="cls-2" d="M100.84,117.76l-20.45-11.81.43-.25v-22.65l20.47,11.82-.45.24v22.65ZM81.63,105.73l18.39,10.62v-21.26l-18.39-10.62v21.26Z"/>
        <polygon class="cls-1" points="81.22 83.76 81.19 83.74 81.19 105.95 81.2 105.96 81.22 105.95 81.22 83.76"/>
        <polygon class="cls-2" points="81.22 106.42 80.78 106.18 80.78 83.04 81.59 83.51 81.63 83.76 81.63 106.18 81.22 106.42"/>
        <polygon class="cls-1" points="61.93 117.08 61.89 117.06 61.89 117.15 61.91 117.16 61.93 117.15 61.93 117.08"/>
        <polygon class="cls-2" points="61.93 117.61 61.48 117.39 61.48 116.34 62.3 116.82 62.34 117.32 62.13 117.5 61.93 117.61"/>
        <polygon class="cls-1" points="61.91 94.86 61.89 94.87 61.89 117.06 61.93 117.08 61.93 94.87 61.91 94.86"/>
        <polygon class="cls-2" points="62.34 117.79 61.48 117.29 61.48 94.63 61.89 94.41 62.32 94.62 62.34 94.87 62.34 117.79"/>
        <path class="cls-2" d="M119.72,128.76l-20.09-11.6.43-.24v-.42l.38.14,19.31-11.15,19.63,11.34v.09s.42.23.42.23l-.61.37-19.47,11.24ZM101.21,117.13l18.51,10.68,18.53-10.7-18.51-10.68-18.53,10.7Z"/>
        <path class="cls-2" d="M100.49,117.55l-.43-.21v-22.21s-.43-.23-.43-.23l.61-.37,19.48-11.25.4.25v.23s0,21.96,0,21.96l.42.23-.6.37-19.46,11.23ZM100.88,95.09v21.29s18.44-10.65,18.44-10.65v-21.29s-18.44,10.65-18.44,10.65Z"/>
        <path class="cls-2" d="M139.38,117.76l-20.45-11.8.42-.25v-22.65s20.48,11.82,20.48,11.82l-.45.24v22.64ZM120.17,105.73l18.39,10.62v-21.26s-18.39-10.62-18.39-10.62v21.26Z"/>
        <polygon class="cls-1" points="119.76 83.77 119.73 83.74 119.73 105.94 119.74 105.96 119.76 105.95 119.76 83.77"/>
        <polygon class="cls-2" points="119.77 106.42 119.32 106.18 119.32 83.04 120.13 83.51 120.17 83.76 120.17 106.18 119.77 106.42"/>
        <polygon class="cls-1" points="100.47 117.08 100.43 117.06 100.43 117.15 100.45 117.16 100.47 117.15 100.47 117.08"/>
        <polygon class="cls-2" points="100.47 117.61 100.02 117.39 100.02 116.34 100.84 116.82 100.88 117.32 100.67 117.5 100.47 117.61"/>
        <polygon class="cls-1" points="100.45 94.86 100.43 94.87 100.43 117.06 100.47 117.08 100.47 94.87 100.45 94.86"/>
        <polygon class="cls-2" points="100.88 117.79 100.02 117.29 100.02 94.63 100.43 94.41 100.86 94.62 100.88 94.87 100.88 117.79"/>
        <polygon class="cls-1" points="177.51 117.06 158.28 105.96 139.01 117.08 139.01 117.08 139.01 117.15 138.99 117.16 158.26 128.28 177.53 117.16 177.51 117.15 177.51 117.06"/>
        <path class="cls-2" d="M158.26,128.75l-20.09-11.6.43-.24v-.42s.38.14.38.14l19.31-11.15,19.64,11.33v.09s.42.23.42.23l-.61.37-19.47,11.24ZM139.75,117.13l18.51,10.69,18.53-10.7-18.51-10.69-18.53,10.7Z"/>
        <polygon class="cls-1" points="158.26 83.74 158.26 83.74 138.99 94.86 139.01 94.87 139.01 117.08 139.01 117.08 158.28 105.96 158.26 105.95 158.26 83.74"/>
        <path class="cls-2" d="M139.03,117.54l-.43-.21v-22.21l-.43-.23.61-.37,19.49-11.25.39.26v.22s0,21.96,0,21.96l.42.23-.6.37-19.46,11.23ZM139.42,95.09v21.29l18.44-10.65v-21.29s-18.44,10.65-18.44,10.65Z"/>
        <path class="cls-2" d="M177.92,117.76l-20.45-11.8.42-.25v-22.65s20.48,11.82,20.48,11.82l-.45.24v22.64ZM158.71,105.73l18.39,10.62v-21.26s-18.39-10.62-18.39-10.62v21.26Z"/>
        <polygon class="cls-1" points="158.3 83.76 158.26 83.74 158.26 105.95 158.28 105.96 158.3 105.95 158.3 83.76"/>
        <polygon class="cls-2" points="158.31 106.42 157.86 106.18 157.86 83.04 158.67 83.51 158.71 83.76 158.71 106.18 158.31 106.42"/>
        <polygon class="cls-1" points="139.01 117.08 138.97 117.06 138.97 117.15 138.99 117.16 139.01 117.15 139.01 117.08"/>
        <polygon class="cls-2" points="139.01 117.62 138.56 117.39 138.56 116.34 139.38 116.82 139.42 117.32 139.21 117.5 139.01 117.62"/>
        <polygon class="cls-1" points="138.99 94.86 138.97 94.87 138.97 117.06 139.01 117.08 139.01 94.87 138.99 94.86"/>
        <polygon class="cls-2" points="139.41 117.79 138.56 117.29 138.56 94.63 138.97 94.41 139.4 94.62 139.42 94.87 139.41 117.79"/>
        <path class="cls-2" d="M61.91,140l-19.67-11.36v-.47l.2-.19,19.49-11.25,20.1,11.6-.44.24v.44l-.38-.16-19.3,11.14ZM43.4,128.37l18.51,10.69,18.53-10.7-18.51-10.68-18.53,10.7Z"/>
        <polygon class="cls-1" points="81.22 128.42 100.45 139.52 119.72 128.4 119.72 128.4 119.73 128.33 119.74 128.32 100.48 117.2 81.21 128.32 81.22 128.33 81.22 128.42"/>
        <path class="cls-2" d="M100.45,140l-19.63-11.34v-.09s-.42-.23-.42-.23l.61-.37,19.47-11.24,20.11,11.61-.45.24v.46l-.39-.17-19.29,11.14ZM81.94,128.37l18.51,10.68,18.53-10.7-18.51-10.68-18.53,10.7Z"/>
        <path class="cls-2" d="M138.99,140l-19.63-11.34v-.09s-.42-.23-.42-.23l.6-.37,19.47-11.24,20.11,11.61-.45.24v.47s-.39-.18-.39-.18l-19.29,11.14ZM120.48,128.37l18.51,10.68,18.53-10.7-18.51-10.69-18.53,10.7Z"/>
        <path class="cls-2" d="M177.53,140l-19.63-11.34v-.09l-.42-.23.6-.37,19.47-11.24,20.1,11.6-.44.24v.44s-.39-.16-.39-.16l-19.3,11.14ZM159.02,128.37l18.51,10.68,18.53-10.7-18.51-10.68-18.53,10.7Z"/>
      </g>
    </g>
  </g>
</svg>