<?xml version="1.0" encoding="UTF-8"?>
<svg id="_Шар_1" data-name="Шар 1" xmlns="http://www.w3.org/2000/svg" viewBox="0 0 32 32">
  <defs>
    <style>
      .cls-1 {
        fill: #c1f33d;
      }

      .cls-2, .cls-3 {
        fill: #020a0a;
      }

      .cls-3 {
        fill-rule: evenodd;
      }
    </style>
  </defs>
  <g>
    <path class="cls-3" d="M12.73,16c0,.99.15,1.94.43,2.84.9.28,1.85.43,2.84.43s1.94-.15,2.84-.43c.28-.9.43-1.85.43-2.84s-.15-1.94-.43-2.84c-.9-.28-1.85-.43-2.84-.43s-1.94.15-2.84.43c-.28.9-.43,1.85-.43,2.84"/>
    <circle class="cls-2" cx="16" cy="22.37" r="9.63"/>
    <path class="cls-3" d="M5.67,22.37c0-2.4.82-4.61,2.19-6.37-1.37-1.75-2.19-3.96-2.19-6.37,0-.88.11-1.74.32-2.55-1.19.49-2.27,1.21-3.16,2.11-1.74,1.74-2.82,4.15-2.82,6.81s1.08,5.07,2.82,6.81c.9.9,1.97,1.62,3.16,2.11-.21-.82-.32-1.67-.32-2.55"/>
    <path class="cls-3" d="M6.37,9.63c0,2.19.73,4.2,1.95,5.82.12-.13.25-.27.37-.39,1.09-1.09,2.42-1.94,3.91-2.46.52-1.49,1.37-2.82,2.46-3.91.13-.13.26-.25.39-.37-1.62-1.23-3.63-1.95-5.82-1.95-.99,0-1.94.15-2.84.43-.28.9-.43,1.85-.43,2.84"/>
    <path class="cls-3" d="M9.63,5.67c2.4,0,4.61.82,6.37,2.19,1.75-1.37,3.96-2.19,6.37-2.19.88,0,1.74.11,2.55.32-.49-1.19-1.21-2.27-2.11-3.16C21.07,1.08,18.66,0,16,0s-5.07,1.08-6.81,2.82c-.9.9-1.62,1.97-2.11,3.16.82-.21,1.67-.32,2.55-.32"/>
    <path class="cls-3" d="M22.37,6.37c-2.19,0-4.2.73-5.82,1.95.13.12.27.25.39.37,1.09,1.09,1.94,2.42,2.46,3.91,1.49.52,2.82,1.37,3.91,2.46.13.13.25.26.37.39,1.23-1.62,1.95-3.63,1.95-5.82,0-.99-.15-1.94-.43-2.84-.9-.28-1.85-.43-2.84-.43"/>
    <path class="cls-3" d="M26.33,9.63c0,2.4-.82,4.61-2.19,6.37,1.37,1.75,2.19,3.96,2.19,6.37,0,.88-.11,1.74-.32,2.55,1.19-.49,2.27-1.21,3.16-2.11,1.74-1.74,2.82-4.15,2.82-6.81s-1.08-5.07-2.82-6.81c-.9-.9-1.97-1.62-3.16-2.11.21.82.32,1.67.32,2.55"/>
    <path class="cls-3" d="M25.63,22.37c0-2.19-.73-4.2-1.95-5.82-.12.13-.25.27-.37.39-1.09,1.09-2.42,1.94-3.91,2.46-.52,1.49-1.37,2.82-2.46,3.91-.13.13-.26.25-.39.37,1.62,1.23,3.63,1.95,5.82,1.95.99,0,1.94-.15,2.84-.43.28-.9.43-1.85.43-2.84"/>
    <path class="cls-3" d="M22.37,26.33c-2.4,0-4.61-.82-6.37-2.19-1.75,1.37-3.96,2.19-6.37,2.19-.88,0-1.74-.11-2.55-.32.49,1.19,1.21,2.27,2.11,3.16,1.74,1.74,4.15,2.82,6.81,2.82s5.07-1.08,6.81-2.82c.9-.9,1.62-1.97,2.11-3.16-.82.21-1.67.32-2.55.32"/>
    <path class="cls-3" d="M9.63,25.63c2.19,0,4.2-.73,5.82-1.95-.13-.12-.27-.25-.39-.37-1.09-1.09-1.94-2.42-2.46-3.91-1.49-.52-2.82-1.37-3.91-2.46-.13-.13-.25-.26-.37-.39-1.23,1.62-1.95,3.63-1.95,5.82,0,.99.15,1.94.43,2.84.9.28,1.85.43,2.84.43"/>
    <path class="cls-3" d="M13.45,19.65c.49,1.19,1.21,2.27,2.11,3.16.14.14.29.28.45.42.15-.14.3-.28.45-.42.9-.9,1.62-1.97,2.11-3.16-.82.21-1.67.32-2.55.32s-1.74-.11-2.55-.32"/>
    <path class="cls-3" d="M12.35,18.55c-.21-.82-.32-1.67-.32-2.55s.11-1.74.32-2.55c-1.19.49-2.27,1.21-3.16,2.11-.14.14-.28.29-.42.45.14.15.28.3.42.45.9.9,1.97,1.62,3.16,2.11"/>
    <path class="cls-3" d="M19.97,16c0,.88-.11,1.74-.32,2.55,1.19-.49,2.27-1.21,3.16-2.11.14-.14.28-.29.42-.45-.14-.15-.28-.3-.42-.45-.9-.9-1.97-1.62-3.16-2.11.21.82.32,1.67.32,2.55"/>
    <path class="cls-3" d="M16,12.03c.88,0,1.74.11,2.55.32-.49-1.19-1.21-2.27-2.11-3.16-.14-.14-.29-.28-.45-.42-.15.14-.3.28-.45.42-.9.9-1.62,1.97-2.11,3.16.82-.21,1.67-.32,2.55-.32"/>
  </g>
  <g>
    <polygon class="cls-1" points="7.03 21.46 16 26.64 24.97 21.46 16 16.28 7.03 21.46"/>
    <polygon class="cls-1" points="25.29 20.9 25.29 10.54 16.32 5.36 16.32 15.72 25.29 20.9"/>
    <polygon class="cls-1" points="6.71 20.9 6.71 10.54 15.68 5.36 15.68 15.72 6.71 20.9"/>
  </g>
</svg>